<mxfile host="app.diagrams.net" agent="Mozilla/5.0 (Macintosh; Intel Mac OS X 10.15; rv:135.0) Gecko/20100101 Firefox/135.0" version="26.1.1">
  <diagram name="Page-1" id="9dnlkhYdrOUv5FQP6LvI">
    <mxGraphModel dx="1434" dy="822" grid="1" gridSize="10" guides="1" tooltips="1" connect="1" arrows="1" fold="1" page="1" pageScale="1" pageWidth="850" pageHeight="1100" math="0" shadow="0">
      <root>
        <mxCell id="0" />
        <mxCell id="1" parent="0" />
        <mxCell id="TwSK1n59M0MJfgsVH_CM-9" value="" style="edgeStyle=orthogonalEdgeStyle;rounded=0;orthogonalLoop=1;jettySize=auto;html=1;" edge="1" parent="1" source="TwSK1n59M0MJfgsVH_CM-1" target="TwSK1n59M0MJfgsVH_CM-2">
          <mxGeometry relative="1" as="geometry" />
        </mxCell>
        <mxCell id="TwSK1n59M0MJfgsVH_CM-1" value="AWS Appflow" style="sketch=0;points=[[0,0,0],[0.25,0,0],[0.5,0,0],[0.75,0,0],[1,0,0],[0,1,0],[0.25,1,0],[0.5,1,0],[0.75,1,0],[1,1,0],[0,0.25,0],[0,0.5,0],[0,0.75,0],[1,0.25,0],[1,0.5,0],[1,0.75,0]];outlineConnect=0;fontColor=#232F3E;fillColor=#E7157B;strokeColor=#ffffff;dashed=0;verticalLabelPosition=bottom;verticalAlign=top;align=center;html=1;fontSize=12;fontStyle=0;aspect=fixed;shape=mxgraph.aws4.resourceIcon;resIcon=mxgraph.aws4.appflow;" vertex="1" parent="1">
          <mxGeometry x="100" y="230" width="78" height="78" as="geometry" />
        </mxCell>
        <mxCell id="TwSK1n59M0MJfgsVH_CM-10" value="" style="edgeStyle=orthogonalEdgeStyle;rounded=0;orthogonalLoop=1;jettySize=auto;html=1;" edge="1" parent="1" source="TwSK1n59M0MJfgsVH_CM-2" target="TwSK1n59M0MJfgsVH_CM-3">
          <mxGeometry relative="1" as="geometry" />
        </mxCell>
        <mxCell id="TwSK1n59M0MJfgsVH_CM-2" value="Glue" style="sketch=0;points=[[0,0,0],[0.25,0,0],[0.5,0,0],[0.75,0,0],[1,0,0],[0,1,0],[0.25,1,0],[0.5,1,0],[0.75,1,0],[1,1,0],[0,0.25,0],[0,0.5,0],[0,0.75,0],[1,0.25,0],[1,0.5,0],[1,0.75,0]];outlineConnect=0;fontColor=#232F3E;fillColor=#8C4FFF;strokeColor=#ffffff;dashed=0;verticalLabelPosition=bottom;verticalAlign=top;align=center;html=1;fontSize=12;fontStyle=0;aspect=fixed;shape=mxgraph.aws4.resourceIcon;resIcon=mxgraph.aws4.glue;" vertex="1" parent="1">
          <mxGeometry x="260" y="230" width="78" height="78" as="geometry" />
        </mxCell>
        <mxCell id="TwSK1n59M0MJfgsVH_CM-11" value="" style="edgeStyle=orthogonalEdgeStyle;rounded=0;orthogonalLoop=1;jettySize=auto;html=1;" edge="1" parent="1" source="TwSK1n59M0MJfgsVH_CM-3">
          <mxGeometry relative="1" as="geometry">
            <mxPoint x="550" y="269" as="targetPoint" />
          </mxGeometry>
        </mxCell>
        <mxCell id="TwSK1n59M0MJfgsVH_CM-14" value="" style="edgeStyle=orthogonalEdgeStyle;rounded=0;orthogonalLoop=1;jettySize=auto;html=1;" edge="1" parent="1" source="TwSK1n59M0MJfgsVH_CM-3" target="TwSK1n59M0MJfgsVH_CM-6">
          <mxGeometry relative="1" as="geometry" />
        </mxCell>
        <mxCell id="TwSK1n59M0MJfgsVH_CM-3" value="S3" style="sketch=0;points=[[0,0,0],[0.25,0,0],[0.5,0,0],[0.75,0,0],[1,0,0],[0,1,0],[0.25,1,0],[0.5,1,0],[0.75,1,0],[1,1,0],[0,0.25,0],[0,0.5,0],[0,0.75,0],[1,0.25,0],[1,0.5,0],[1,0.75,0]];outlineConnect=0;fontColor=#232F3E;fillColor=#7AA116;strokeColor=#ffffff;dashed=0;verticalLabelPosition=bottom;verticalAlign=top;align=center;html=1;fontSize=12;fontStyle=0;aspect=fixed;shape=mxgraph.aws4.resourceIcon;resIcon=mxgraph.aws4.s3;" vertex="1" parent="1">
          <mxGeometry x="410" y="230" width="78" height="78" as="geometry" />
        </mxCell>
        <mxCell id="TwSK1n59M0MJfgsVH_CM-5" value="SNS" style="sketch=0;points=[[0,0,0],[0.25,0,0],[0.5,0,0],[0.75,0,0],[1,0,0],[0,1,0],[0.25,1,0],[0.5,1,0],[0.75,1,0],[1,1,0],[0,0.25,0],[0,0.5,0],[0,0.75,0],[1,0.25,0],[1,0.5,0],[1,0.75,0]];outlineConnect=0;fontColor=#232F3E;fillColor=#E7157B;strokeColor=#ffffff;dashed=0;verticalLabelPosition=bottom;verticalAlign=top;align=center;html=1;fontSize=12;fontStyle=0;aspect=fixed;shape=mxgraph.aws4.resourceIcon;resIcon=mxgraph.aws4.sns;" vertex="1" parent="1">
          <mxGeometry x="550" y="110" width="78" height="78" as="geometry" />
        </mxCell>
        <mxCell id="TwSK1n59M0MJfgsVH_CM-15" value="" style="edgeStyle=orthogonalEdgeStyle;rounded=0;orthogonalLoop=1;jettySize=auto;html=1;" edge="1" parent="1" source="TwSK1n59M0MJfgsVH_CM-6" target="TwSK1n59M0MJfgsVH_CM-7">
          <mxGeometry relative="1" as="geometry" />
        </mxCell>
        <mxCell id="TwSK1n59M0MJfgsVH_CM-6" value="Athena" style="sketch=0;points=[[0,0,0],[0.25,0,0],[0.5,0,0],[0.75,0,0],[1,0,0],[0,1,0],[0.25,1,0],[0.5,1,0],[0.75,1,0],[1,1,0],[0,0.25,0],[0,0.5,0],[0,0.75,0],[1,0.25,0],[1,0.5,0],[1,0.75,0]];outlineConnect=0;fontColor=#232F3E;fillColor=#8C4FFF;strokeColor=#ffffff;dashed=0;verticalLabelPosition=bottom;verticalAlign=top;align=center;html=1;fontSize=12;fontStyle=0;aspect=fixed;shape=mxgraph.aws4.resourceIcon;resIcon=mxgraph.aws4.athena;" vertex="1" parent="1">
          <mxGeometry x="410" y="110" width="78" height="78" as="geometry" />
        </mxCell>
        <mxCell id="TwSK1n59M0MJfgsVH_CM-7" value="QuickSight" style="outlineConnect=0;dashed=0;verticalLabelPosition=bottom;verticalAlign=top;align=center;html=1;shape=mxgraph.aws3.quicksight;fillColor=#00B7F4;gradientColor=none;" vertex="1" parent="1">
          <mxGeometry x="419" width="60" height="60" as="geometry" />
        </mxCell>
        <mxCell id="TwSK1n59M0MJfgsVH_CM-8" value="Bedrock" style="sketch=0;points=[[0,0,0],[0.25,0,0],[0.5,0,0],[0.75,0,0],[1,0,0],[0,1,0],[0.25,1,0],[0.5,1,0],[0.75,1,0],[1,1,0],[0,0.25,0],[0,0.5,0],[0,0.75,0],[1,0.25,0],[1,0.5,0],[1,0.75,0]];outlineConnect=0;fontColor=#232F3E;fillColor=#01A88D;strokeColor=#ffffff;dashed=0;verticalLabelPosition=bottom;verticalAlign=top;align=center;html=1;fontSize=12;fontStyle=0;aspect=fixed;shape=mxgraph.aws4.resourceIcon;resIcon=mxgraph.aws4.bedrock;" vertex="1" parent="1">
          <mxGeometry x="660" y="230" width="78" height="78" as="geometry" />
        </mxCell>
        <mxCell id="TwSK1n59M0MJfgsVH_CM-17" value="" style="edgeStyle=orthogonalEdgeStyle;rounded=0;orthogonalLoop=1;jettySize=auto;html=1;" edge="1" parent="1" source="TwSK1n59M0MJfgsVH_CM-16" target="TwSK1n59M0MJfgsVH_CM-5">
          <mxGeometry relative="1" as="geometry" />
        </mxCell>
        <mxCell id="TwSK1n59M0MJfgsVH_CM-16" value="Step functions" style="sketch=0;points=[[0,0,0],[0.25,0,0],[0.5,0,0],[0.75,0,0],[1,0,0],[0,1,0],[0.25,1,0],[0.5,1,0],[0.75,1,0],[1,1,0],[0,0.25,0],[0,0.5,0],[0,0.75,0],[1,0.25,0],[1,0.5,0],[1,0.75,0]];outlineConnect=0;fontColor=#232F3E;fillColor=#E7157B;strokeColor=#ffffff;dashed=0;verticalLabelPosition=bottom;verticalAlign=top;align=center;html=1;fontSize=12;fontStyle=0;aspect=fixed;shape=mxgraph.aws4.resourceIcon;resIcon=mxgraph.aws4.step_functions;" vertex="1" parent="1">
          <mxGeometry x="550" y="240" width="78" height="78" as="geometry" />
        </mxCell>
        <mxCell id="TwSK1n59M0MJfgsVH_CM-20" value="" style="edgeStyle=none;orthogonalLoop=1;jettySize=auto;html=1;endArrow=classic;startArrow=classic;endSize=8;startSize=8;rounded=0;" edge="1" parent="1">
          <mxGeometry width="100" relative="1" as="geometry">
            <mxPoint x="630" y="270" as="sourcePoint" />
            <mxPoint x="660" y="270" as="targetPoint" />
            <Array as="points" />
          </mxGeometry>
        </mxCell>
      </root>
    </mxGraphModel>
  </diagram>
</mxfile>
